<?xml version="1.0" encoding="UTF-8"?>
<svg id="uuid-d1173bd0-0ca2-4cd7-aea0-30fc86347c30" data-name="Layer 2" xmlns="http://www.w3.org/2000/svg" width="752.922" height="323.72" viewBox="0 0 752.922 323.72">
  <defs>
    <style>
      .uuid-83a1126c-a1a7-479e-a96f-2fdaebf622c4 {
        fill: #fff;
      }
    </style>
  </defs>
  <g id="uuid-4883b731-3566-44e0-b65a-77e7b6f1ae3f" data-name="Layer 1">
    <g>
      <g>
        <path class="uuid-83a1126c-a1a7-479e-a96f-2fdaebf622c4" d="M293.866,93.727v-3.668c3.534-5.023,9.678-12.429,18.44-22.209,8.761-9.78,14.772-15.689,18.032-17.727h3.668c13.855,8.558,23.365,16.3,28.525,23.228,3.394-4.346,8.487-10.188,15.281-17.523,6.791-7.335,11.477-11.817,14.059-13.447h3.668c10.729,6.927,18.847,13.075,24.349,18.439,5.501,5.368,8.252,10.971,8.252,16.81,0,10.325-11.14,23.568-33.416,39.732h-3.667c-9.374-9.506-18.205-17.59-26.489-24.247-4.208,8.694-15.007,19.29-32.396,31.785h-3.667c-12.088-11.951-23.635-22.343-34.638-31.174Z"/>
        <path class="uuid-83a1126c-a1a7-479e-a96f-2fdaebf622c4" d="M494.971,218.219c0,13.448-3.738,23.839-11.207,31.174-7.472,7.335-16.574,11.003-27.303,11.003-16.708,0-31.989-2.172-45.845-6.521-14.536-4.482-25.199-6.724-31.989-6.724-9.51,0-17.93,2.343-25.266,7.029-7.335,4.687-15.147,13.143-23.432,25.367l-8.558-4.075c12.496-30.833,26.622-53.654,42.381-68.461,15.756-14.804,31.853-22.209,48.29-22.209,6.79,0,15.959,1.971,27.506,5.909,6.247,2.445,18.608,3.667,37.083,3.667,12.226,0,18.339,7.946,18.339,23.839Z"/>
        <path class="uuid-83a1126c-a1a7-479e-a96f-2fdaebf622c4" d="M457.887,43.603v-3.667c3.397-5.161,9.443-12.562,18.135-22.209,8.694-9.644,14.74-15.552,18.134-17.727h3.668c10.458,6.657,18.506,12.77,24.145,18.338,5.635,5.571,8.455,11.206,8.455,16.911,0,9.78-11.479,22.958-34.434,39.528h-3.668c-11.681-11.952-23.158-22.343-34.435-31.174Z"/>
        <path class="uuid-83a1126c-a1a7-479e-a96f-2fdaebf622c4" d="M592.161,156.278c3.123,0,5.909,1.528,8.354,4.584,2.444,3.056,3.667,6.896,3.667,11.512,0,8.287-2.684,15.078-8.048,20.375-5.368,5.297-11.309,7.946-17.828,7.946-7.609,0-14.467-1.764-20.579-5.297-5.705-3.123-9.78-4.687-12.226-4.687-2.175,0-3.941.681-5.298,2.038s-3.33,4.075-5.908,8.15c-13.448,20.105-23.808,33.451-31.072,40.038-7.269,6.591-14.264,11.48-20.987,14.671-6.724,3.192-15.316,4.788-25.774,4.788-9.099-.271-13.651-4.687-13.651-13.244,0-13.174,4.721-25.129,14.16-35.861,9.439-10.729,21.155-16.367,35.148-16.912,11.002,0,19.56-2.273,25.673-6.826,6.112-4.549,14.263-14.228,24.45-29.035,4.482-7.198,10.254-10.799,17.318-10.799,3.668,0,8.691,1.359,15.078,4.075,5.568,2.99,11.41,4.483,17.522,4.483Z"/>
        <path class="uuid-83a1126c-a1a7-479e-a96f-2fdaebf622c4" d="M680.387,244.504v-3.668c3.396-5.027,9.442-12.397,18.134-22.107,8.694-9.713,14.74-15.657,18.134-17.828h3.668c10.458,6.654,18.506,12.801,24.145,18.439,5.635,5.635,8.455,11.238,8.455,16.81,0,9.78-11.479,22.954-34.434,39.528h-3.668c-11.681-11.954-23.157-22.346-34.434-31.174Z"/>
        <path class="uuid-83a1126c-a1a7-479e-a96f-2fdaebf622c4" d="M642.896,27.914c8.828,0,20.069,2.649,33.721,7.947,13.651,5.297,25.367,10.391,35.147,15.281,17.931,8.694,31.037,13.584,39.324,14.67l.611,5.094c-11.14,9.239-36.542,33.823-76.203,73.758-19.02,19.561-32.805,32.33-41.362,38.306-8.558,5.979-17.252,10.426-26.08,13.346-8.831,2.923-18.745,4.381-29.748,4.381-3.123,0-5.909-1.458-8.354-4.381-2.445-2.919-3.668-6.826-3.668-11.716,0-8.15,2.617-14.906,7.845-20.273,5.228-5.364,11.238-8.048,18.032-8.048,27.98,0,55.013-11.614,81.094-34.842l32.396-27.914c-6.387-1.901-17.66-5.909-33.823-12.021-22.005-8.558-35.319-13.276-39.936-14.161-4.619-.882-9.169-1.324-13.651-1.324-14.129,0-23.772,5.164-28.933,15.485l-10.596-3.668c9.507-18.337,19.389-31.241,29.646-38.713,10.254-7.469,21.767-11.207,34.536-11.207Z"/>
      </g>
      <g>
        <path class="uuid-83a1126c-a1a7-479e-a96f-2fdaebf622c4" d="M66,196.006v-2.067c1.9-2.909,5.283-7.082,10.145-12.52,4.864-5.436,8.247-8.766,10.145-9.991h2.052c5.851,3.752,10.354,7.197,13.508,10.336,3.153,3.141,4.73,6.317,4.73,9.533,0,5.513-6.422,12.94-19.264,22.28h-2.052c-6.535-6.736-12.956-12.594-19.264-17.571Z"/>
        <path class="uuid-83a1126c-a1a7-479e-a96f-2fdaebf622c4" d="M166.54,109.753l4.901,1.264c-.912,4.671-1.444,15.274-1.596,31.813-.533,35.604-4.104,63.666-10.715,84.186-9.803,31.392-23.368,55.357-40.694,71.896-17.327,16.539-37.2,24.809-59.617,24.809-17.936,0-32.222-5.533-42.86-16.597-10.641-11.064-15.959-25.631-15.959-43.7,0-16.538,1.842-32.158,5.529-46.859,3.685-14.7,9.213-29.821,16.585-45.365l6.611,2.526c-8.816,21.362-13.223,39.663-13.223,54.898,0,17.84,4.825,31.125,14.477,39.854,9.65,8.729,23.026,13.093,40.125,13.093,13.526,0,25.363-2.279,35.508-6.834,10.145-4.556,18.637-10.471,25.477-17.744,6.839-7.275,12.063-15.715,15.674-25.324,3.608-9.608,5.415-23.218,5.415-40.83l-.228-15.964c0-10.182,1.006-19.983,3.021-29.401,2.013-9.418,5.871-21.323,11.57-35.719Z"/>
        <path class="uuid-83a1126c-a1a7-479e-a96f-2fdaebf622c4" d="M268.333,149.491l-2.622,15.964c-.456,2.834-.684,5.59-.684,8.27,0,10.184,2.223,18.166,6.668,23.946,4.445,5.782,10.695,8.671,18.751,8.671,3.419,0,5.984,1.246,7.694,3.733,1.709,2.488,2.564,5.725,2.564,9.704,0,7.58-2.148,13.438-6.44,17.572-4.294,4.135-9.367,6.202-15.218,6.202-8.891,0-15.884-3.101-20.974-9.303-5.092-6.202-7.637-14.127-7.637-23.774h-.342c-4.104,10.644-10.754,21.058-19.949,31.239-2.963,2.067-7.637,3.886-14.021,5.456-6.383,1.568-17.289,3.272-32.715,5.11l-.456-5.168c15.198-8.192,28.649-16.691,40.353-25.497,11.702-8.804,19.777-18.376,24.223-28.713,4.446-10.336,9.062-25.152,13.85-44.446l6.954,1.033Z"/>
        <path class="uuid-83a1126c-a1a7-479e-a96f-2fdaebf622c4" d="M363.971,181.534c-3.801,10.644-10.259,20.846-19.378,30.608-9.119,9.762-19.417,17.438-30.892,23.027-11.476,5.59-23.026,8.384-34.653,8.384-6.458-.152-9.727-4.632-9.803-13.438,0-9.8,3.687-16.844,11.057-21.133,0-5.588,2.793-12.978,8.378-22.166,5.585-9.188,13.241-18.49,22.969-27.908,9.727-9.418,19.225-14.127,28.498-14.127,4.711,0,8.567,1.264,11.57,3.79,3.001,2.526,4.502,5.782,4.502,9.763,0,5.819-2.205,10.184-6.611,13.093l-2.052-.229c-4.104-3.599-9.082-5.398-14.933-5.398-6.992,0-13.128,2.01-18.409,6.03-5.283,4.02-7.922,8.9-7.922,14.643,0,4.595,1.918,8.366,5.756,11.313,3.836,2.948,8.834,4.422,14.99,4.422,2.204-.383,4.407-1.072,6.612-2.067,10.487-4.135,19.15-11.179,25.99-21.133l4.332,2.526Z"/>
      </g>
    </g>
  </g>
</svg>